<mxfile host="app.diagrams.net" modified="2021-01-07T08:53:11.975Z" agent="5.0 (X11; Linux x86_64) AppleWebKit/537.36 (KHTML, like Gecko) Chrome/87.0.4280.66 Safari/537.36" etag="dOXmXsGpeid9nwc6U056" version="14.1.8" type="github">
  <diagram id="neK0iWN75nUantSPHkgY" name="Page-1">
    <mxGraphModel dx="1355" dy="-1194" grid="1" gridSize="10" guides="1" tooltips="1" connect="1" arrows="1" fold="1" page="1" pageScale="1" pageWidth="250" pageHeight="500" math="0" shadow="0">
      <root>
        <mxCell id="0" />
        <mxCell id="1" parent="0" />
        <mxCell id="vxwo77DV5p5cHvCMnt50-1" value=":FlinkController" style="shape=umlLifeline;perimeter=lifelinePerimeter;container=1;collapsible=0;recursiveResize=0;rounded=0;shadow=0;strokeWidth=1;" vertex="1" parent="1">
          <mxGeometry x="202.5" y="2400" width="100" height="590" as="geometry" />
        </mxCell>
        <mxCell id="vxwo77DV5p5cHvCMnt50-2" value="" style="points=[];perimeter=orthogonalPerimeter;rounded=0;shadow=0;strokeWidth=1;" vertex="1" parent="vxwo77DV5p5cHvCMnt50-1">
          <mxGeometry x="45" y="70" width="10" height="470" as="geometry" />
        </mxCell>
        <mxCell id="vxwo77DV5p5cHvCMnt50-3" value="dispatch" style="verticalAlign=bottom;startArrow=oval;endArrow=block;startSize=8;shadow=0;strokeWidth=1;" edge="1" parent="vxwo77DV5p5cHvCMnt50-1" target="vxwo77DV5p5cHvCMnt50-2">
          <mxGeometry relative="1" as="geometry">
            <mxPoint x="-15" y="70" as="sourcePoint" />
          </mxGeometry>
        </mxCell>
        <mxCell id="vxwo77DV5p5cHvCMnt50-4" value=":Rule" style="shape=umlLifeline;perimeter=lifelinePerimeter;container=1;collapsible=0;recursiveResize=0;rounded=0;shadow=0;strokeWidth=1;" vertex="1" parent="1">
          <mxGeometry x="382.5" y="2400" width="100" height="590" as="geometry" />
        </mxCell>
        <mxCell id="vxwo77DV5p5cHvCMnt50-5" value="" style="points=[];perimeter=orthogonalPerimeter;rounded=0;shadow=0;strokeWidth=1;" vertex="1" parent="vxwo77DV5p5cHvCMnt50-4">
          <mxGeometry x="45" y="80" width="10" height="460" as="geometry" />
        </mxCell>
        <mxCell id="vxwo77DV5p5cHvCMnt50-6" value="crateControllCommand" style="verticalAlign=bottom;endArrow=block;entryX=0;entryY=0;shadow=0;strokeWidth=1;" edge="1" parent="1" source="vxwo77DV5p5cHvCMnt50-2" target="vxwo77DV5p5cHvCMnt50-5">
          <mxGeometry relative="1" as="geometry">
            <mxPoint x="357.5" y="2480" as="sourcePoint" />
          </mxGeometry>
        </mxCell>
        <mxCell id="vxwo77DV5p5cHvCMnt50-7" value=":RulePayload" style="shape=umlLifeline;perimeter=lifelinePerimeter;container=1;collapsible=0;recursiveResize=0;rounded=0;shadow=0;strokeWidth=1;" vertex="1" parent="1">
          <mxGeometry x="777.5" y="2400" width="100" height="590" as="geometry" />
        </mxCell>
        <mxCell id="vxwo77DV5p5cHvCMnt50-8" value="" style="points=[];perimeter=orthogonalPerimeter;rounded=0;shadow=0;strokeWidth=1;" vertex="1" parent="vxwo77DV5p5cHvCMnt50-7">
          <mxGeometry x="45" y="80" width="10" height="460" as="geometry" />
        </mxCell>
        <mxCell id="vxwo77DV5p5cHvCMnt50-9" value=":FlinkRuleService" style="shape=umlLifeline;perimeter=lifelinePerimeter;container=1;collapsible=0;recursiveResize=0;rounded=0;shadow=0;strokeWidth=1;" vertex="1" parent="1">
          <mxGeometry x="967.5" y="2400" width="100" height="590" as="geometry" />
        </mxCell>
        <mxCell id="vxwo77DV5p5cHvCMnt50-10" value="" style="points=[];perimeter=orthogonalPerimeter;rounded=0;shadow=0;strokeWidth=1;" vertex="1" parent="vxwo77DV5p5cHvCMnt50-9">
          <mxGeometry x="45" y="80" width="10" height="460" as="geometry" />
        </mxCell>
        <mxCell id="vxwo77DV5p5cHvCMnt50-11" value="&lt;font style=&quot;font-size: 30px&quot;&gt;Get Sync Rules(&lt;/font&gt;&lt;font style=&quot;font-size: 20px&quot;&gt;/api/syncRules&lt;/font&gt;&lt;font style=&quot;font-size: 30px&quot;&gt;)&lt;/font&gt;" style="text;html=1;strokeColor=none;fillColor=none;align=center;verticalAlign=middle;whiteSpace=wrap;rounded=0;" vertex="1" parent="1">
          <mxGeometry x="400" y="2330" width="690" height="50" as="geometry" />
        </mxCell>
        <mxCell id="vxwo77DV5p5cHvCMnt50-12" value=":Rule" style="shape=umlLifeline;perimeter=lifelinePerimeter;container=1;collapsible=0;recursiveResize=0;rounded=0;shadow=0;strokeWidth=1;" vertex="1" parent="1">
          <mxGeometry x="472.5" y="2580" width="100" height="410" as="geometry" />
        </mxCell>
        <mxCell id="vxwo77DV5p5cHvCMnt50-13" value="" style="points=[];perimeter=orthogonalPerimeter;rounded=0;shadow=0;strokeWidth=1;" vertex="1" parent="vxwo77DV5p5cHvCMnt50-12">
          <mxGeometry x="45" y="80" width="10" height="280" as="geometry" />
        </mxCell>
        <mxCell id="vxwo77DV5p5cHvCMnt50-14" value="setRulePayload" style="verticalAlign=bottom;endArrow=block;shadow=0;strokeWidth=1;" edge="1" parent="1">
          <mxGeometry relative="1" as="geometry">
            <mxPoint x="437.4999999999998" y="2671" as="sourcePoint" />
            <mxPoint x="517.4999999999998" y="2671" as="targetPoint" />
          </mxGeometry>
        </mxCell>
        <mxCell id="vxwo77DV5p5cHvCMnt50-15" value=":ObjectMapper" style="shape=umlLifeline;perimeter=lifelinePerimeter;container=1;collapsible=0;recursiveResize=0;rounded=0;shadow=0;strokeWidth=1;" vertex="1" parent="1">
          <mxGeometry x="582.5" y="2400" width="100" height="590" as="geometry" />
        </mxCell>
        <mxCell id="vxwo77DV5p5cHvCMnt50-16" value="" style="points=[];perimeter=orthogonalPerimeter;rounded=0;shadow=0;strokeWidth=1;" vertex="1" parent="vxwo77DV5p5cHvCMnt50-15">
          <mxGeometry x="45" y="80" width="10" height="460" as="geometry" />
        </mxCell>
        <mxCell id="vxwo77DV5p5cHvCMnt50-17" value="writeValueAsString" style="verticalAlign=bottom;endArrow=block;shadow=0;strokeWidth=1;" edge="1" parent="1">
          <mxGeometry relative="1" as="geometry">
            <mxPoint x="527.5" y="2734" as="sourcePoint" />
            <mxPoint x="627.5" y="2734" as="targetPoint" />
          </mxGeometry>
        </mxCell>
        <mxCell id="vxwo77DV5p5cHvCMnt50-18" value="setRuleState" style="verticalAlign=bottom;endArrow=block;shadow=0;strokeWidth=1;exitX=1.159;exitY=0.075;exitDx=0;exitDy=0;exitPerimeter=0;" edge="1" parent="1" target="vxwo77DV5p5cHvCMnt50-8">
          <mxGeometry relative="1" as="geometry">
            <mxPoint x="439.0899999999997" y="2509" as="sourcePoint" />
            <mxPoint x="582" y="2509" as="targetPoint" />
          </mxGeometry>
        </mxCell>
        <mxCell id="vxwo77DV5p5cHvCMnt50-19" value="setControlType" style="verticalAlign=bottom;endArrow=block;shadow=0;strokeWidth=1;exitX=1.159;exitY=0.075;exitDx=0;exitDy=0;exitPerimeter=0;" edge="1" parent="1" target="vxwo77DV5p5cHvCMnt50-8">
          <mxGeometry relative="1" as="geometry">
            <mxPoint x="439.0899999999997" y="2550" as="sourcePoint" />
            <mxPoint x="582" y="2550" as="targetPoint" />
          </mxGeometry>
        </mxCell>
        <mxCell id="vxwo77DV5p5cHvCMnt50-20" value="addRule" style="verticalAlign=bottom;endArrow=block;shadow=0;strokeWidth=1;" edge="1" parent="1">
          <mxGeometry relative="1" as="geometry">
            <mxPoint x="257.5" y="2788" as="sourcePoint" />
            <mxPoint x="1012.5" y="2788" as="targetPoint" />
          </mxGeometry>
        </mxCell>
        <mxCell id="vxwo77DV5p5cHvCMnt50-21" value="getRulePayload" style="verticalAlign=bottom;endArrow=block;shadow=0;strokeWidth=1;" edge="1" parent="1">
          <mxGeometry relative="1" as="geometry">
            <mxPoint x="1012.5" y="2831" as="sourcePoint" />
            <mxPoint x="832.5" y="2831" as="targetPoint" />
          </mxGeometry>
        </mxCell>
        <mxCell id="vxwo77DV5p5cHvCMnt50-22" value=":KafkaTemplate" style="shape=umlLifeline;perimeter=lifelinePerimeter;container=1;collapsible=0;recursiveResize=0;rounded=0;shadow=0;strokeWidth=1;" vertex="1" parent="1">
          <mxGeometry x="1152.5" y="2400" width="100" height="590" as="geometry" />
        </mxCell>
        <mxCell id="vxwo77DV5p5cHvCMnt50-23" value="" style="points=[];perimeter=orthogonalPerimeter;rounded=0;shadow=0;strokeWidth=1;" vertex="1" parent="vxwo77DV5p5cHvCMnt50-22">
          <mxGeometry x="45" y="80" width="10" height="460" as="geometry" />
        </mxCell>
        <mxCell id="vxwo77DV5p5cHvCMnt50-24" value="send" style="verticalAlign=bottom;endArrow=block;shadow=0;strokeWidth=1;" edge="1" parent="1" target="vxwo77DV5p5cHvCMnt50-23">
          <mxGeometry relative="1" as="geometry">
            <mxPoint x="1022.5" y="2860" as="sourcePoint" />
            <mxPoint x="1122.4999999999998" y="2860" as="targetPoint" />
          </mxGeometry>
        </mxCell>
      </root>
    </mxGraphModel>
  </diagram>
</mxfile>
